<svg xmlns="http://www.w3.org/2000/svg" width="493.109" height="493"><path d="M246.609 120.101a126.4 126.4 0 10126.4 126.4 126.2 126.2 0 00-126.4-126.4zm0 208.575a82.176 82.176 0 1182.176-82.176 82.325 82.325 0 01-82.176 82.175zm161.052-213.745a29.482 29.482 0 11-29.487-29.482 29.414 29.414 0 0129.487 29.482zm83.713 29.922c-1.87-39.493-10.891-74.475-39.823-103.3-28.822-28.822-63.8-37.843-103.3-39.823-40.7-2.31-162.7-2.31-203.4 0-39.377 1.873-74.364 10.893-103.297 39.715s-37.843 63.8-39.823 103.3c-2.31 40.7-2.31 162.7 0 203.4 1.87 39.493 10.891 74.475 39.823 103.3s63.8 37.843 103.3 39.823c40.7 2.31 162.7 2.31 203.4 0 39.493-1.87 74.475-10.891 103.3-39.823 28.822-28.822 37.843-63.8 39.823-103.3 2.31-40.7 2.31-162.592 0-203.295zM438.793 391.82a83.2 83.2 0 01-46.863 46.863c-32.452 12.871-109.458 9.9-145.32 9.9s-112.978 2.86-145.32-9.9a83.2 83.2 0 01-46.863-46.863c-12.871-32.452-9.9-109.458-9.9-145.32s-2.863-112.978 9.898-145.325a83.2 83.2 0 0146.863-46.863c32.452-12.871 109.458-9.9 145.32-9.9s112.978-2.86 145.32 9.9a83.2 83.2 0 0146.865 46.863c12.871 32.452 9.9 109.458 9.9 145.32s2.971 112.98-9.9 145.325z" fill="#fff"/></svg>