<svg xmlns="http://www.w3.org/2000/svg" width="448.986" height="300.5"><defs><linearGradient id="a" x1=".5" y1="1" x2=".5" gradientUnits="objectBoundingBox"><stop offset="0" stop-color="gray" stop-opacity=".251"/><stop offset=".54" stop-color="gray" stop-opacity=".122"/><stop offset="1" stop-color="gray" stop-opacity=".102"/></linearGradient></defs><g transform="translate(-.001)"><path d="M260.86 49.543c-28.784-1.005-56.2-10.288-82.356-20.456s-52.107-21.434-80.2-26.819c-18.09-3.464-38.756-3.952-53.315 5.74C30.982 17.33 26.454 33.425 24.022 48.35c-1.832 11.235-2.907 23.063 2.108 33.577 3.484 7.3 9.669 13.441 13.947 20.436 14.894 24.333 4.372 54.344-11.765 78.108-7.568 11.146-16.344 21.781-22.182 33.647s-8.538 25.463-3.429 37.567c5.066 12 17.127 21.009 30.2 27.346 26.547 12.86 57.828 16.559 88.33 18.647 67.524 4.618 135.406 2.619 203.11.616 25.054-.74 50.221-1.493 74.866-5.366 13.69-2.151 27.821-5.565 37.758-13.811 12.615-10.464 15.74-28.183 7.287-41.309-14.177-22.01-53.389-27.474-63.292-51.1-5.456-13 .148-27.486 8.075-39.543 17.007-25.869 45.51-48.561 47.014-78.132 1.029-20.307-12.673-40.642-33.861-50.272-22.213-10.07-53-8.8-69.387 7.868-16.872 17.193-46.52 23.799-71.941 22.914z" fill="#6d9af2" opacity=".28"/><g opacity=".5"><path d="M195.147 156.887l-13.039.269-2.132 2.927v10.113l2.662 1.863h12.509l2.662-2.927v-9.583z" fill="#fff"/><path d="M194.875 158.484s-11.976 1.863-13.039 0l.269-1.329 12.77-.28z" fill="#fff" opacity=".2"/><path d="M196.212 186.16l2.128 2.132v10.132l-2.128 2.1s-7.716 2.662-12.774.53l-2.4-2.393v-10.134l2.132-2.4z" fill="#6c63ff"/><path d="M195.679 188.558s-9.314 2.128-12.506 0v-2.4h13.04z" fill="#fff" opacity=".2"/><path d="M191.154 171.988v14.4a2.159 2.159 0 01-2.26 2.042 2.159 2.159 0 01-2.26-2.042v-14.4a2.186 2.186 0 012.525-2.03 2.128 2.128 0 011.995 2.03zm24.878-14.688l-13.04.265-2.132 2.927v10.113l2.662 1.863h12.51l2.662-2.927v-9.581z" fill="#fff"/><path d="M215.763 158.894s-11.976 1.863-13.04 0l.265-1.329 12.775-.265z" fill="#fff" opacity=".2"/><path d="M217.088 186.57l2.128 2.132v10.132l-2.128 2.108s-7.72 2.662-12.774.53l-2.4-2.393V188.97l2.132-2.4z" fill="#6c63ff"/><path d="M216.563 188.97s-9.314 2.128-12.506 0v-2.4h13.032z" fill="#fff" opacity=".2"/><path d="M212.022 172.397v14.4a2.163 2.163 0 01-2.26 2.042 2.163 2.163 0 01-2.264-2.042v-14.4a2.187 2.187 0 012.529-2.03 2.128 2.128 0 011.995 2.03zm30.596-7.401l-10.736.222-1.754 2.408v8.324l2.19 1.535h10.3l2.19-2.412v-7.887z" fill="#fff"/><path d="M242.396 166.313s-9.856 1.532-10.732 0l.218-1.1 10.522-.222z" fill="#fff" opacity=".2"/><path d="M243.491 189.096l1.754 1.754v8.324l-1.754 1.754s-6.352 2.19-10.522.437l-1.972-1.972v-8.324l1.754-1.972z" fill="#fff"/><path d="M243.054 191.068s-7.669 1.754-10.3 0v-1.972h10.732z" fill="#fff" opacity=".2"/><path d="M239.329 177.428v11.851a1.777 1.777 0 01-1.863 1.68 1.773 1.773 0 01-1.859-1.68v-11.851a1.8 1.8 0 012.077-1.672 1.754 1.754 0 011.645 1.672zm20.479-12.093l-10.736.218-1.75 2.408v8.328l2.19 1.532h10.3l2.19-2.408v-7.888z" fill="#fff"/><path d="M259.589 166.648s-9.859 1.535-10.736 0l.218-1.1 10.522-.218z" fill="#fff" opacity=".2"/><path d="M260.685 189.435l1.75 1.75v8.324l-1.75 1.754s-6.356 2.19-10.522.44l-1.968-1.96v-8.336l1.754-1.972z" fill="#fff"/><path d="M260.244 191.407s-7.665 1.75-10.3 0v-1.972h10.736z" fill="#fff" opacity=".2"/><path d="M256.523 177.763v11.847a1.777 1.777 0 01-1.863 1.68 1.777 1.777 0 01-1.863-1.68v-11.847a1.8 1.8 0 012.081-1.668 1.75 1.75 0 011.645 1.668z" fill="#fff"/></g><path d="M465.788 333.218a6.577 6.577 0 00-4.053-2.973 14.808 14.808 0 00-5.1-.32 44.813 44.813 0 00-8.157 1.344 8.5 8.5 0 00-4.493 2.338c-.031.039-.066.086-.1.125-1.711.448-3.41 1.138-5.066 1.7a47.544 47.544 0 01-5.066 1.376 30.005 30.005 0 006.27-4.423 17.726 17.726 0 002.338-2.79 9.279 9.279 0 003.9.261c2.638-.452 4.77-2.338 6.754-4.178l6.379-5.869a12.936 12.936 0 002.728-3.118 12.2 12.2 0 001.021-5.674c.031-2.673 0-5.347-.078-8.016l2.019 1.559a17.876 17.876 0 011.769-9.571c.7-1.415 1.621-2.821 1.641-4.408.031-2.447-2.073-4.372-4.228-5.456s-4.579-1.777-6.344-3.441c-2.627-2.475-3.118-6.422-4.415-9.813a38.994 38.994 0 00-2.728-5.366l-2.525-4.4a62.429 62.429 0 00-4.24-6.7 61.448 61.448 0 00-9.22-9.146l-17.085-14.719a160.555 160.555 0 00-12.817-10.3c-9.115-6.356-19.4-10.721-29.618-15.043-2.572-1.091-5.249-2.2-8.032-2.065a9.185 9.185 0 00-5.627 2.408 33.608 33.608 0 01-4.287-1.629l-.109-.051c.031-.23.066-.456.09-.686.035-.3.055-.608.078-.916a7.151 7.151 0 002.206-.721 2.647 2.647 0 00.908-.705 3.231 3.231 0 00.464-1.726 77.391 77.391 0 00.288-12.237 25.889 25.889 0 00-3.507-11.6 6.024 6.024 0 00-2.658-2.572c-1.559-.624-3.363-.043-5.027-.323-2.88-.487-4.676-3.3-6.761-5.382a16.4 16.4 0 00-20.378-1.793c-2.307 1.617-4.154 3.811-6.212 5.744s-4.47 3.683-7.248 4.061a3.531 3.531 0 00-1.469.39 3.027 3.027 0 00-1.044 1.687 29.842 29.842 0 00-1.765 6.777 15.46 15.46 0 01-.074-.421 13.214 13.214 0 00-.066 2.576 7.517 7.517 0 00.927 3.118 4.228 4.228 0 002.132 2.034 5.806 5.806 0 002.054.331h.308c-.113.3-.222.6-.323.9a24.941 24.941 0 00-1.305 7.993 24.5 24.5 0 0024.321 24.692 24.239 24.239 0 004.813-.507c.526.168 1.052.339 1.559.522a29.23 29.23 0 013.048 1.2c.421.2 2.124 1.193 4.181 2.475l-.14.292a15.487 15.487 0 00-4.478 14.976c1.489 5.795 6.372 10.764 5.881 16.73a10.211 10.211 0 00-.105 2.553 6.186 6.186 0 001.781 2.985c.686.756 1.4 1.489 2.124 2.206-.058 3.807-.39 7.611-.748 11.407-.031.331-.039.666-.043 1.005a7.015 7.015 0 001.684 4.47 7.25 7.25 0 011.368 5.277c-.308 2.634-1.606 5.023-2.475 7.521-3.92 11.235.9 23.9-1.816 35.506-.666 2.857-1.789 5.635-1.948 8.573-.09 1.836.2 3.761-.507 5.456a10.233 10.233 0 01-3.09 3.57q-2.553 2.186-4.973 4.521a68.824 68.824 0 00-7.537-3.546 13.544 13.544 0 00-1.286-.444c-3.047-2.853-6.89-4.676-10.5-6.773-2.993-1.734-5.846-3.683-8.714-5.631a48.736 48.736 0 01-7.821-6.161c-1.169-1.216-2.21-2.556-3.468-3.667a29.494 29.494 0 00-3.507-2.51 140.934 140.934 0 01-15.775-11.866c-3.792-3.289-6.894-7.525-10.947-10.475-2.482-1.808-5.37-3.457-8.41-3.118a8.023 8.023 0 00-2.771.853 7.246 7.246 0 00-2.541-.569c-2.471-.078-4.739 1.263-6.859 2.553q-18.706 11.368-38 21.722c-2.6 1.4-5.206 2.779-7.685 4.376a52.192 52.192 0 00-12.681 11.562c-.655.83-1.481 1.773-2.521 1.648a2.252 2.252 0 01-.807-.288c-1.6-.869-2.584-2.549-3.507-4.143a13.177 13.177 0 00-2.377-3.277 6.919 6.919 0 00-.834-1.559c1.383-3.414 2.576-6.909 3.683-10.428.577-1.847 1.134-3.706 1.871-5.5 1.816-4.435 4.712-8.453 5.736-13.145.246-1.134.39-2.3.581-3.445a24.4 24.4 0 10-17.638-3.355v.136a17.239 17.239 0 01-.23 2.338 29.6 29.6 0 01-2.677 7.447c-.74 1.594-1.481 3.2-2.249 4.786a4.439 4.439 0 01-1.064-.359 3.221 3.221 0 01-1.2-1.878 67.217 67.217 0 00-4.041-9.454 16.366 16.366 0 00-2.338-3.589 19.71 19.71 0 00-6.075-3.948c-.39-.187-.752-.39-1.126-.569a9.617 9.617 0 00-1.013-.659c-1.812-1.025-3.823-1.761-5.335-3.2-1.134-1.076-1.913-2.475-2.973-3.616-1.765-1.9-4.2-2.981-6.567-4.014a8.712 8.712 0 00-3.87-1.013 4.64 4.64 0 00-.565.062 8.961 8.961 0 00-.959.218 5.214 5.214 0 01-.865-.577c-1.446-1.115-2.007-3.028-2.479-4.809-.779-2.977-1.6-6.06-1.118-9.107a13.8 13.8 0 01.343-1.559c.121-.2.238-.39.343-.6a20.331 20.331 0 0010.643-31.356c-.2-.273-.39-.538-.612-.8l.234-.129c2.155-1.317 2.646-4.466 1.648-6.812s-3.118-4-5.265-5.3a27.75 27.75 0 00-.947-.549l-.273-.148a63.662 63.662 0 00-.721-.39l-.284-.144a27.721 27.721 0 00-.853-.413l-.129-.062c-.355-.16-.709-.316-1.068-.464a13.764 13.764 0 00-1.044-.39l-.144-.055a30.231 30.231 0 00-1-.343l-.074-.023a26.2 26.2 0 00-7.584-1.278 36.273 36.273 0 00-7.5.83 36.347 36.347 0 00-7.015 2.015 25.011 25.011 0 00-9.614 7.21 9.265 9.265 0 00-1.606.265 16.136 16.136 0 00-5.74 3.044 18.316 18.316 0 00-3.819 3.788 16.344 16.344 0 00-2.576 6.146c-1.477 6.909.339 14.029 1.676 20.974s2.108 14.513-1.169 20.744c-1.235 2.338-2.989 4.369-4.287 6.664s-2.2 5.066-1.45 7.611c.908 3.09 3.9 5.035 5.456 7.841a9.609 9.609 0 01-1.064 10.522c-.105.125-.21.249-.323.39a3.9 3.9 0 01-.421.421c2.459.865 5.2-.066 7.4-1.454a13.145 13.145 0 004.369-4.2c2.786-4.575 1.535-10.491 2.517-15.779 1.29-6.925 6.5-13.1 5.779-20.113-.483-4.7-3.554-8.636-5.966-12.681a50.163 50.163 0 01-4.014-8.542l-.133-.39a12.552 12.552 0 01-.885-6.235 8.721 8.721 0 01.608-1.976v.226a15.3 15.3 0 001.329 5.888c2.436 5.066 8.3 7.4 12.018 11.512.156.171.3.347.452.526.043.047.082.1.121.148l.316.39.133.183c.1.136.195.273.284.413l.121.175c.125.2.249.39.366.6a9.28 9.28 0 002.307-3.507 3.674 3.674 0 00.082-.359c.031.031.058.066.09.1.074.417.132.834.187 1.255a8.47 8.47 0 00.191 1.789 78.695 78.695 0 01-.191 11.336c-.132 2.007.39 4.988-.889 6.485l-.039.043a2.056 2.056 0 01-.246.242c-.218.226-.44.448-.647.682-4.287 4.832-6.235 11.691-6.134 18.262.1 7.478 2.49 14.723 5.2 21.679a60.877 60.877 0 003.336 7.4 12.93 12.93 0 002.576 3.464 15.523 15.523 0 003.741 2.233c.327.156.659.308.986.468l.838.39 6.379 3.032c1.169 1.719 2.3 3.484 3.441 5.253.164.249.323.507.491.756 1.247 1.949 2.5 3.9 3.78 5.791l10.752 15.923a13.418 13.418 0 002.689 3.2 5.489 5.489 0 001.005.627 5.252 5.252 0 00.557.23 1.777 1.777 0 00-.284 1.2 2.038 2.038 0 00.779 1.017c2.432 2.011 5.132 4.131 5.9 7.221.542 2.2 0 4.56.487 6.773.892 3.991 4.84 6.411 8.573 7.946a48.032 48.032 0 0026.551 3.161 38.787 38.787 0 0023.09-13.25c1.769-2.175 3.277-4.548 4.957-6.793a56.874 56.874 0 013.784-4.544 31.23 31.23 0 004.135-2.284 79.821 79.821 0 007.794-6.485c1.913-1.668 3.917-3.242 5.674-5.066a59.38 59.38 0 004.415-5.456q4.676-6.2 9.661-12.147c1.777-2.124 3.659-4.287 6.142-5.456l.113-.047c.3 1.746 1.68 3.227 2.65 4.735 4.014 6.235 8.215 12.654 14.419 16.629a46.086 46.086 0 0011.075 4.723c9.743 3.079 19.641 5.495 29.547 7.915.327-.624.647-1.2 1.005-1.761a5.348 5.348 0 01.429.514c.043.062.078.129.121.191a1.416 1.416 0 00-.21.059 2.771 2.771 0 00-1.4 1.473 16.358 16.358 0 00-1.22 7.015c-.035 2.338 0 4.676 0 7.015a6.052 6.052 0 00.39 2.564c.756 1.559 2.677 2.139 4.4 2.338a36.743 36.743 0 008.963-.351 6.906 6.906 0 00.83 1.984 14.16 14.16 0 007.545 5.584 67 67 0 009.287 2.1c5.53 1.1 11.188 2.857 16.687 1.617 2.194-.495 4.287-1.454 6.481-1.875 5.023-.951 10.23.974 15.288.2a24.026 24.026 0 006.968-2.482 9.556 9.556 0 002.981-2.058 3.734 3.734 0 00.963-3.387 13.674 13.674 0 00-.92-1.894 10.069 10.069 0 01-.659-3.2 87.732 87.732 0 00-2.1-12.284c-.027-.113-.058-.23-.09-.347a53.122 53.122 0 0010.626-6.25l7.276-5.09a43.217 43.217 0 017.362-4.458 31.874 31.874 0 0112.884-2.272c1.8 0 3.6.09 5.386.253a2.339 2.339 0 00-.5.865 3.209 3.209 0 001.056 3.153 13.892 13.892 0 002.942 1.839 17.8 17.8 0 016.625 6.512c1 1.711 1.723 3.788 1.091 5.67-.779 2.362-3.558 3.991-3.4 6.477a3.986 3.986 0 002.619 3.219 10.58 10.58 0 004.287.491 16.292 16.292 0 006.941-1.337 17.976 17.976 0 003.831-2.922 11.124 11.124 0 002.806-3.367 10.255 10.255 0 00.694-4.08c.117-6.531-1.009-13.152.288-19.551.39-1.949 1.013-3.854 1.344-5.818a40.985 40.985 0 00.125-9.4 10.273 10.273 0 00-.969-4.466z" transform="translate(-56.965 -124.874)" fill="url(#a)"/><path d="M326.487 118.014c-1.532 1.033-2.065 3.028-2.26 4.867-.83 7.821 2.4 15.565 2.182 23.425-.171 6.255-2.5 12.221-4.8 18.039a107.381 107.381 0 00-6.754 31.348c-.791 10.643-1.949 21.726-7.662 30.728-1.3 2.038-2.81 3.932-4.08 5.982-1.333 2.143-2.389 4.443-3.566 6.672a71.789 71.789 0 01-13.25 17.8 18.284 18.284 0 01-5.2 3.87 10.468 10.468 0 01-8.129.086c-2.666-1.1-4.91-3.589-5.019-6.473-.1-2.58 1.442-4.906 2.985-6.972a114.436 114.436 0 0117.926-19 10.319 10.319 0 003.118-3.535c.705-1.68.417-3.585.507-5.405.144-2.9 1.274-5.659 1.949-8.488 2.728-11.492-2.12-24.041 1.824-35.175.877-2.475 2.178-4.84 2.486-7.447a7.078 7.078 0 00-1.376-5.23 6.874 6.874 0 01-1.687-4.427 8.427 8.427 0 01.039-.994 107.456 107.456 0 00.69-15.343 35.972 35.972 0 00-3.636-14.809c-1.224-2.358-2.806-4.563-3.562-7.108-1.216-4.119-.094-8.573 1.719-12.47a21.755 21.755 0 015.935-8.04 15.9 15.9 0 0117.58-1.121c3.952 2.362 6.656 6.333 8.85 10.382 1.573 2.958 3.214 5.464 3.191 8.838z" opacity=".06"/><path d="M313.497 86.955q-1.122 3.028-2.233 6.056c-.491 1.325-.978 2.662-1.485 3.987-2.338 6.107-4.953 12.116-9.045 17.17.612-.756-5.144-4.56-9.388-7.155-2.069-1.274-3.784-2.256-4.2-2.451a30.739 30.739 0 00-3.067-1.193c-1.617-.546-3.254-1.017-4.871-1.606-3.741-1.352-1.126-3.383.475-5.565 5.242-7.147 6.235-16.913 12.186-23.48a21.945 21.945 0 009.852 9.528c.082.043.167.082.253.117 3.535 1.652 7.439 2.365 11.095 3.749.2.074.429.179.495.39a.779.779 0 01-.067.453zm-10.175 144.354a17.579 17.579 0 00-1.812 16.823 5.7 5.7 0 001.313 2.03 6.149 6.149 0 002.506 1.169c7.739 2.2 16 1.769 23.928.39a42.113 42.113 0 007.88-2.007 52.643 52.643 0 0010.888-6.29l7.319-5.043a44.362 44.362 0 017.4-4.419 32.546 32.546 0 0112.958-2.249 60.456 60.456 0 0111.3 1.08c2.482.479 5.456.974 7.2-.838a6.819 6.819 0 001.489-3.94 58.713 58.713 0 00-.043-16.59 2.155 2.155 0 00-.479-1.267 1.949 1.949 0 00-.966-.44c-3.449-.779-6.909.838-10.261 1.948-6.964 2.315-14.442 2.592-21.527 4.5-7.436 2-14.419 5.783-22.1 6.551-3.663.366-7.342.047-11.013.129-3.406.074-6.582 1.251-9.918 1.391-6.428.283-12.021 1.403-16.062 7.072z" fill="#a1616a"/><path d="M303.322 231.309a17.579 17.579 0 00-1.812 16.823 5.7 5.7 0 001.313 2.03 6.149 6.149 0 002.506 1.169c7.739 2.2 16 1.769 23.928.39a42.113 42.113 0 007.88-2.007 52.643 52.643 0 0010.888-6.29l7.319-5.043a44.362 44.362 0 017.4-4.419 32.546 32.546 0 0112.958-2.249 60.456 60.456 0 0111.3 1.08c2.482.479 5.456.974 7.2-.838a6.819 6.819 0 001.489-3.94 58.713 58.713 0 00-.043-16.59 2.155 2.155 0 00-.479-1.267 1.949 1.949 0 00-.966-.44c-3.449-.779-6.909.838-10.261 1.948-6.964 2.315-14.442 2.592-21.527 4.5-7.436 2-14.419 5.783-22.1 6.551-3.663.366-7.342.047-11.013.129-3.406.074-6.582 1.251-9.918 1.391-6.428.283-12.021 1.403-16.062 7.072z" opacity=".06"/><path d="M309.612 223.066a5.275 5.275 0 00-.09 2.615 4.872 4.872 0 001.559 2.1c6.625 5.931 16.091 7.159 24.941 8.121a18.882 18.882 0 0013.382-2.2c4.287-2.03 8.6-4.084 12.272-7.069 3.6-2.923 6.5-6.664 10.23-9.419 4.244-3.118 9.462-4.9 13.25-8.573a17.813 17.813 0 005.195-9.844 28.1 28.1 0 000-7.755 23.065 23.065 0 00-2.214-8.609 20.814 20.814 0 00-7.272-7.221 37.751 37.751 0 00-20.654-6.391c-10.132.09-19.485 5.986-26.757 12.607a78.751 78.751 0 00-18.313 24.917 76.076 76.076 0 00-5.529 16.721z" fill="#464353"/><path d="M309.612 223.066a5.275 5.275 0 00-.09 2.615 4.872 4.872 0 001.559 2.1c6.625 5.931 16.091 7.159 24.941 8.121a18.882 18.882 0 0013.382-2.2c4.287-2.03 8.6-4.084 12.272-7.069 3.6-2.923 6.5-6.664 10.23-9.419 4.244-3.118 9.462-4.9 13.25-8.573a17.813 17.813 0 005.195-9.844 28.1 28.1 0 000-7.755 23.065 23.065 0 00-2.214-8.609 20.814 20.814 0 00-7.272-7.221 37.751 37.751 0 00-20.654-6.391c-10.132.09-19.485 5.986-26.757 12.607a78.751 78.751 0 00-18.313 24.917 76.076 76.076 0 00-5.529 16.721z" opacity=".06"/><path d="M326.487 118.014c-1.532 1.033-2.065 3.028-2.26 4.867-.83 7.821 2.4 15.565 2.182 23.425-.171 6.255-2.5 12.221-4.8 18.039a107.381 107.381 0 00-6.754 31.348c-.791 10.643-1.949 21.726-7.662 30.728-1.3 2.038-2.81 3.932-4.08 5.982-1.333 2.143-2.389 4.443-3.566 6.672a71.789 71.789 0 01-13.25 17.8 18.284 18.284 0 01-5.2 3.87 10.468 10.468 0 01-8.129.086c-2.666-1.1-4.91-3.589-5.019-6.473-.1-2.58 1.442-4.906 2.985-6.972a114.436 114.436 0 0117.926-19 10.319 10.319 0 003.118-3.535c.705-1.68.417-3.585.507-5.405.144-2.9 1.274-5.659 1.949-8.488 2.728-11.492-2.12-24.041 1.824-35.175.877-2.475 2.178-4.84 2.486-7.447a7.078 7.078 0 00-1.376-5.23 6.874 6.874 0 01-1.687-4.427 8.427 8.427 0 01.039-.994 107.456 107.456 0 00.69-15.343 35.972 35.972 0 00-3.636-14.809c-1.224-2.358-2.806-4.563-3.562-7.108-1.216-4.119-.094-8.573 1.719-12.47a21.755 21.755 0 015.935-8.04 15.9 15.9 0 0117.58-1.121c3.952 2.362 6.656 6.333 8.85 10.382 1.573 2.958 3.214 5.464 3.191 8.838z" fill="#a1616a"/><ellipse cx="14.75" cy="23.145" rx="14.75" ry="23.145" transform="translate(290.205 97.905)" fill="#a1616a"/><path d="M267.337 241.995a5.144 5.144 0 01.779 4.287 7.494 7.494 0 004.789 1.4 14.808 14.808 0 004.93-1.134 16.287 16.287 0 003.835-2.011 16.9 16.9 0 004.675-5.894c.658-1.231 1.22-2.825.39-3.932a3.773 3.773 0 00-1.169-.9 69.43 69.43 0 00-9.353-4.447 6.875 6.875 0 00-2.822-.631 6.049 6.049 0 00-3.234 1.454 17.537 17.537 0 00-5.035 6.235c-.366.779-1.473 2.63-.924 3.433.249.37 1.169.5 1.559.733a5.038 5.038 0 011.578 1.407z" fill="#fbbebe"/><path d="M267.337 241.995a5.144 5.144 0 01.779 4.287 7.494 7.494 0 004.789 1.4 14.808 14.808 0 004.93-1.134 16.287 16.287 0 003.835-2.011 16.9 16.9 0 004.675-5.894c.658-1.231 1.22-2.825.39-3.932a3.773 3.773 0 00-1.169-.9 69.43 69.43 0 00-9.353-4.447 6.875 6.875 0 00-2.822-.631 6.049 6.049 0 00-3.234 1.454 17.537 17.537 0 00-5.035 6.235c-.366.779-1.473 2.63-.924 3.433.249.37 1.169.5 1.559.733a5.038 5.038 0 011.578 1.407z" opacity=".03"/><path d="M283.475 232.965c6.594 1.224 12.658 4.411 19.138 6.13a63.586 63.586 0 017.829 2.19 10.657 10.657 0 015.947 5.253 15.05 15.05 0 01.9 3.71c.281 1.8.511 3.8-.557 5.277-1.126 1.559-3.254 1.9-5.16 2.132-6.851.814-13.7 1.633-20.576 2.21a35.958 35.958 0 00-4.15.495c-1.13.226-2.233.569-3.355.834-1.454.339-2.931.553-4.4.779a45.452 45.452 0 01-11.364.67c-1.726-.191-3.659-.748-4.419-2.307a5.889 5.889 0 01-.39-2.541c-.019-2.315-.039-4.626 0-6.937a15.736 15.736 0 011.228-6.952 2.763 2.763 0 011.407-1.461 3.231 3.231 0 011.208-.109 14.27 14.27 0 015.935 1.06c1.438.713 2.607 1.9 4.072 2.549 2.775 1.231 6.122.347 8.932 1.5a11.182 11.182 0 00.019-6.13 47.708 47.708 0 01-1.376-6.212 3.959 3.959 0 00-.265-1.356c-.214-.429-.144-.85-.603-.784z" fill="#464353"/><path d="M283.475 232.965c6.594 1.224 12.658 4.411 19.138 6.13a63.586 63.586 0 017.829 2.19 10.657 10.657 0 015.947 5.253 15.05 15.05 0 01.9 3.71c.281 1.8.511 3.8-.557 5.277-1.126 1.559-3.254 1.9-5.16 2.132-6.851.814-13.7 1.633-20.576 2.21a35.958 35.958 0 00-4.15.495c-1.13.226-2.233.569-3.355.834-1.454.339-2.931.553-4.4.779a45.452 45.452 0 01-11.364.67c-1.726-.191-3.659-.748-4.419-2.307a5.889 5.889 0 01-.39-2.541c-.019-2.315-.039-4.626 0-6.937a15.736 15.736 0 011.228-6.952 2.763 2.763 0 011.407-1.461 3.231 3.231 0 011.208-.109 14.27 14.27 0 015.935 1.06c1.438.713 2.607 1.9 4.072 2.549 2.775 1.231 6.122.347 8.932 1.5a11.182 11.182 0 00.019-6.13 47.708 47.708 0 01-1.376-6.212 3.959 3.959 0 00-.265-1.356c-.214-.429-.144-.85-.603-.784z" opacity=".06"/><path d="M63.211 166.517c-1.329-.421-2.611.756-3.355 1.949-3.094 4.864-2.841 11.356-.366 16.562a12.572 12.572 0 002.4 3.574 23.117 23.117 0 004.676 3.118 35.186 35.186 0 0111.208 10.522c1.906 2.81 3.406 5.9 5.569 8.515 5.323 6.438 14.072 9.353 19.236 15.9 1.235 1.559 2.28 3.367 3.928 4.5a6.679 6.679 0 0010.456-5.175 75.079 75.079 0 005.21-9.419 112.1 112.1 0 005.846-15.148c.581-1.832 1.142-3.675 1.882-5.456 1.828-4.4 4.739-8.375 5.768-13.02a56.174 56.174 0 011.114-5.612 10.674 10.674 0 012.681-4.287c4.053-3.94 6.235-9.68 9.458-14.318a30.911 30.911 0 003.535-5.865 9.278 9.278 0 00.39-6.691 5.58 5.58 0 00-5.2-3.753 7.9 7.9 0 00-2.919.9 32.523 32.523 0 00-8.55 5.892 41.4 41.4 0 00-3.118 3.351c-4.762 5.69-8.488 12.6-8.815 20.007-.109 2.541.094 5.358-1.52 7.326-4.45 5.436-5.881 12.911-9.676 18.827-1.758 2.728-3.772 5.553-6.777 6.8a2.892 2.892 0 01-1.426.281c-1.2-.136-1.89-1.4-2.4-2.5a96.676 96.676 0 00-6.855-12.373 11.782 11.782 0 00-3.78-4.072c-1.115-.62-2.408-.9-3.457-1.621-1.461-1.009-2.225-2.728-2.985-4.337a67.388 67.388 0 00-9.279-14.466c-1.691-2.015-3.92-4.1-6.531-3.8-2.482.299-4.002 2.911-6.348 3.889z" fill="#fbbebe"/><path d="M63.211 166.517c-1.329-.421-2.611.756-3.355 1.949-3.094 4.864-2.841 11.356-.366 16.562a12.572 12.572 0 002.4 3.574 23.117 23.117 0 004.676 3.118 35.186 35.186 0 0111.208 10.522c1.906 2.81 3.406 5.9 5.569 8.515 5.323 6.438 14.072 9.353 19.236 15.9 1.235 1.559 2.28 3.367 3.928 4.5a6.679 6.679 0 0010.456-5.175 75.079 75.079 0 005.21-9.419 112.1 112.1 0 005.846-15.148c.581-1.832 1.142-3.675 1.882-5.456 1.828-4.4 4.739-8.375 5.768-13.02a56.174 56.174 0 011.114-5.612 10.674 10.674 0 012.681-4.287c4.053-3.94 6.235-9.68 9.458-14.318a30.911 30.911 0 003.535-5.865 9.278 9.278 0 00.39-6.691 5.58 5.58 0 00-5.2-3.753 7.9 7.9 0 00-2.919.9 32.523 32.523 0 00-8.55 5.892 41.4 41.4 0 00-3.118 3.351c-4.762 5.69-8.488 12.6-8.815 20.007-.109 2.541.094 5.358-1.52 7.326-4.45 5.436-5.881 12.911-9.676 18.827-1.758 2.728-3.772 5.553-6.777 6.8a2.892 2.892 0 01-1.426.281c-1.2-.136-1.89-1.4-2.4-2.5a96.676 96.676 0 00-6.855-12.373 11.782 11.782 0 00-3.78-4.072c-1.115-.62-2.408-.9-3.457-1.621-1.461-1.009-2.225-2.728-2.985-4.337a67.388 67.388 0 00-9.279-14.466c-1.691-2.015-3.92-4.1-6.531-3.8-2.482.299-4.002 2.911-6.348 3.889z" opacity=".03"/><ellipse cx="10.273" cy="9.271" rx="10.273" ry="9.271" transform="translate(52.665 129.355)" fill="#fbbebe"/><circle cx="3.698" cy="3.698" r="3.698" transform="translate(68.873 133.022)" fill="#fbbebe"/><ellipse cx="14.15" cy="3.784" rx="14.15" ry="3.784" transform="translate(50.136 131.058)" fill="#fbbebe"/><path d="M51.667 134.035a25.629 25.629 0 01.811 3.332 19.9 19.9 0 01-3.063-4.026 3 3 0 01-.542-.857 22.891 22.891 0 01-2.124-9.131 20.015 20.015 0 1125.276 19.31 25.008 25.008 0 001.559-5.941 4.286 4.286 0 00-.288-2.007 4.575 4.575 0 00-1.469-1.691 12.692 12.692 0 00-7.9-2.4 21.688 21.688 0 00-8.125 1.949c-.807.347-1.773.814-2.728 1.134a7.1 7.1 0 01-1.407.328zm50.759 43.792c-1.282 2.054-4.022 2.681-6.43 2.5-4.489-.331-8.573-2.728-12.042-5.612s-6.5-6.235-10.047-9.01c-6.6-5.171-14.029-7.248-22.424-7.369 1.641-1.36 1.037-4.587 1.169-6.707a65.56 65.56 0 000-12.911c-.058-.456-.125-.9-.2-1.352.133.14.273.277.417.417A20.039 20.039 0 0072 142.662a15.586 15.586 0 00-.5 2.073c-.483 3.012.327 6.068 1.126 9.018.475 1.765 1.04 3.659 2.494 4.762a10.981 10.981 0 003.25 1.376 17.927 17.927 0 016.056 3.507 49 49 0 003.659 3.277 25.471 25.471 0 003.956 2.042 49.492 49.492 0 019.509 5.764 3.118 3.118 0 011.235 1.465 2.408 2.408 0 01-.355 1.882z" fill="#fbbebe"/><path d="M125.446 215.589c-.269 1.777-1.9 3.164-3.047 4.544-3.125 3.772-6.294 7.556-9.789 11.009a153.211 153.211 0 01-11.952 10.269l-5.323 4.259a6.7 6.7 0 01-2.264 1.364 4.135 4.135 0 01-2.915-.347 5.706 5.706 0 01-1.009-.62 13.67 13.67 0 01-2.7-3.176q-5.4-7.884-10.814-15.771a275.198 275.198 0 01-3.8-5.736c-.168-.249-.327-.5-.495-.752-1.146-1.754-2.288-3.507-3.461-5.2l-6.415-3-.842-.39-.994-.464a15.74 15.74 0 01-3.761-2.21 12.732 12.732 0 01-2.592-3.433 60.086 60.086 0 01-3.359-7.354c-2.728-6.886-5.129-14.064-5.23-21.477-.09-6.52 1.836-13.3 6.169-18.086a19.42 19.42 0 011.906-1.847 3.407 3.407 0 012.767-.955c1.072.152 2.089.308 3.118.483q4.256.733 8.445 1.793c2.517.643 5.125 1.376 7.669.865.409-.082.814-.2 1.22-.3.331-.086.659-.168 1-.222a4.618 4.618 0 01.569-.062 8.948 8.948 0 013.9 1.005c2.381 1.021 4.832 2.1 6.625 3.975 1.068 1.13 1.851 2.517 2.989 3.581 1.52 1.422 3.546 2.151 5.37 3.168a9.62 9.62 0 011.017.651 11.555 11.555 0 011.948 1.851c2.362 2.786 3.765 6.547 6.372 9.318a38.034 38.034 0 015.4 7.315c.246.44.483.885.717 1.337q.585 1.128 1.087 2.288c.086.2.171.39.249.6a35.753 35.753 0 011.282 3.574c.885 2.942 1.473 6.118 3.437 8.48 1.372 1.641 3.274 2.728 4.875 4.143a8.624 8.624 0 012.369 3.223 4.606 4.606 0 01.262 2.307z" fill="#fbbebe"/><path d="M114.597 192.183q-.67.846-1.376 1.668c-.078.1-.164.2-.249.3a74.43 74.43 0 01-13.975 12.669c-3.2 2.237-6.582 4.221-9.953 6.2l-6.235 3.651a38.612 38.612 0 01-8.141 3.956c-.927.277-1.9.5-2.845.76-.168-.249-.327-.5-.495-.752-1.146-1.754-2.288-3.507-3.461-5.2l-6.415-3a37.568 37.568 0 009.3-8.332c3.9-4.805 6.894-10.284 9.848-15.728a11.823 11.823 0 001.212-2.806 9.648 9.648 0 00-.417-4.953 26.11 26.11 0 00-10.444-14.08 49.357 49.357 0 00-11.465-5.132c-2.771-.959-5.807-1.886-8.624-1.493a18.944 18.944 0 011.906-1.843 3.4 3.4 0 012.767-.959c1.072.152 2.089.308 3.118.487 2.085.639 4.135 1.4 6.173 2.19a28.945 28.945 0 013.9 1.765 34.9 34.9 0 013.589 2.514 89.675 89.675 0 0010.647 6.98c4.287 2.366 8.788 4.287 13.285 6.235a3.535 3.535 0 001.539.39 1.208 1.208 0 001.169-.912 1.469 1.469 0 00-.187-.814c-.779-1.594-2.549-2.4-4.15-3.172-6.648-3.219-12.494-7.853-18.277-12.451a1.837 1.837 0 01-.366-.39l1-.222a148.677 148.677 0 0020.436 12.31q.565.288 1.134.561c.273.136.542.269.818.39a17.444 17.444 0 015.288 3.507 16.149 16.149 0 012.338 3.55 66.722 66.722 0 014.069 9.353 2.113 2.113 0 00.074.2 3.6 3.6 0 00.717 1.337 1.518 1.518 0 00.409.323c.73.437 1.735.389 2.339.943z" opacity=".06"/><path d="M76.983 158.824a148.268 148.268 0 0020.44 12.319l1.134.565a20.187 20.187 0 016.111 3.9 16.265 16.265 0 012.338 3.554 66.053 66.053 0 014.065 9.353 3.163 3.163 0 001.2 1.863c.663.366 1.715.339 2.3.892a53.736 53.736 0 01-1.625 1.949 74.321 74.321 0 01-13.975 12.673c-3.2 2.237-6.582 4.221-9.953 6.2l-6.235 3.651a38.785 38.785 0 01-8.141 3.952c-1.087.331-2.237.581-3.34.9-1.146-1.754-2.288-3.507-3.461-5.2l-7.256-3.4a36.52 36.52 0 0010.132-8.831c3.9-4.8 6.894-10.28 9.848-15.725a11.889 11.889 0 001.212-2.806 9.663 9.663 0 00-.417-4.957 26.11 26.11 0 00-10.417-14.041 49.52 49.52 0 00-11.465-5.132c-2.771-.955-5.807-1.886-8.624-1.489a19.417 19.417 0 011.906-1.847 3.407 3.407 0 012.767-.955c1.072.152 2.089.308 3.118.483 2.085.643 4.135 1.407 6.173 2.194a28.442 28.442 0 013.9 1.765 34.894 34.894 0 013.593 2.515 89.634 89.634 0 0010.662 6.96c4.287 2.369 8.788 4.306 13.285 6.235a3.527 3.527 0 001.539.39 1.2 1.2 0 001.169-.912 1.461 1.461 0 00-.187-.811c-.779-1.594-2.549-2.4-4.15-3.172-6.648-3.219-12.494-7.856-18.277-12.471a1.726 1.726 0 01-.366-.39z" fill="#fff"/><circle cx="24.462" cy="24.462" r="24.462" transform="translate(107.122 131.058)" fill="#D5FF00"/><path d="M155.905 252.875c4.579-1.438 9.228-2.9 13.25-5.534a78.286 78.286 0 007.821-6.427c1.929-1.652 3.94-3.211 5.709-5.035a59.482 59.482 0 004.443-5.386q4.692-6.142 9.692-12.05c1.789-2.1 3.679-4.24 6.177-5.409 4.439-2.085 9.649-.678 14.333.752a133.322 133.322 0 0120.557 7.677c3.733 1.859 7.35 3.932 11.118 5.713 6.89 3.254 14.2 5.487 21.492 7.708a2.728 2.728 0 001.715.14 2.521 2.521 0 001.017-.85 14.519 14.519 0 002.256-3.9.748.748 0 00-.183-1.009c-3.118-3.036-7.163-4.9-10.943-7.065-3.009-1.719-5.888-3.648-8.764-5.577a47.953 47.953 0 01-7.868-6.1c-1.169-1.2-2.221-2.533-3.488-3.632a29.235 29.235 0 00-3.546-2.486 142.5 142.5 0 01-15.869-11.757c-3.811-3.258-6.933-7.455-11.005-10.378-2.5-1.793-5.405-3.426-8.46-3.1-3.718.39-6.461 3.507-9.053 6.2-8.71 9.045-19.7 15.518-29.419 23.472-7.934 6.485-15.35 14.189-25.015 17.611.433 1.434.585 2.868 1.021 4.287a44.793 44.793 0 002.03 5.783 45.482 45.482 0 002.7 4.832l3.874 6.325a15.99 15.99 0 002.708 3.613c.59.565 1.7.768 1.7 1.582z" fill="#464353"/><path d="M155.905 252.875c4.579-1.438 9.228-2.9 13.25-5.534a78.286 78.286 0 007.821-6.427c1.929-1.652 3.94-3.211 5.709-5.035a59.482 59.482 0 004.443-5.386q4.692-6.142 9.692-12.05c1.789-2.1 3.679-4.24 6.177-5.409 4.439-2.085 9.649-.678 14.333.752a133.322 133.322 0 0120.557 7.677c3.733 1.859 7.35 3.932 11.118 5.713 6.89 3.254 14.2 5.487 21.492 7.708a2.728 2.728 0 001.715.14 2.521 2.521 0 001.017-.85 14.519 14.519 0 002.256-3.9.748.748 0 00-.183-1.009c-3.118-3.036-7.163-4.9-10.943-7.065-3.009-1.719-5.888-3.648-8.764-5.577a47.953 47.953 0 01-7.868-6.1c-1.169-1.2-2.221-2.533-3.488-3.632a29.235 29.235 0 00-3.546-2.486 142.5 142.5 0 01-15.869-11.757c-3.811-3.258-6.933-7.455-11.005-10.378-2.5-1.793-5.405-3.426-8.46-3.1-3.718.39-6.461 3.507-9.053 6.2-8.71 9.045-19.7 15.518-29.419 23.472-7.934 6.485-15.35 14.189-25.015 17.611.433 1.434.585 2.868 1.021 4.287a44.793 44.793 0 002.03 5.783 45.482 45.482 0 002.7 4.832l3.874 6.325a15.99 15.99 0 002.708 3.613c.59.565 1.7.768 1.7 1.582z" opacity=".06"/><path d="M262.591 245.451a5.155 5.155 0 01.779 4.287 7.479 7.479 0 004.778 1.407 15.012 15.012 0 004.941-1.13 16.438 16.438 0 003.835-2.011 17.113 17.113 0 004.7-5.888c.659-1.228 1.22-2.821.37-3.928a3.671 3.671 0 00-1.169-.9 69.612 69.612 0 00-9.333-4.447 6.956 6.956 0 00-2.821-.635 6.053 6.053 0 00-3.238 1.458 17.536 17.536 0 00-5.031 6.235c-.366.779-1.473 2.634-.928 3.437.249.37 1.169.5 1.559.729a5.042 5.042 0 011.558 1.386z" fill="#fbbebe"/><path d="M280.435 236.231c6.594 1.228 12.658 4.411 19.138 6.13a63.614 63.614 0 017.829 2.19 10.657 10.657 0 015.947 5.253 15.091 15.091 0 01.9 3.71c.281 1.8.511 3.8-.557 5.277-1.126 1.559-3.254 1.906-5.16 2.132-6.851.818-13.7 1.633-20.576 2.21a36.84 36.84 0 00-4.143.495c-1.13.23-2.233.569-3.355.834-1.45.343-2.931.553-4.4.779a45.452 45.452 0 01-11.364.666c-1.726-.191-3.659-.748-4.419-2.307a5.889 5.889 0 01-.39-2.541c0-2.311-.039-4.626 0-6.937a15.737 15.737 0 011.228-6.952 2.775 2.775 0 011.407-1.461 3.232 3.232 0 011.208-.109 14.272 14.272 0 015.935 1.06c1.438.713 2.475-1.419 3.94-.779 2.779 1.228.9-2.494 3.7-1.337.655-2.019 3.437-.818 2.954-2.888s1.251-1.169 1.052-3.3a3.979 3.979 0 00-.265-1.356c-.219-.414-.145-.835-.609-.769z" fill="#464353"/><path d="M82.917 111.545c-1.512.881-3.387.717-5.148.678a32.017 32.017 0 00-4.61.238 4.354 4.354 0 00-1.586.421 3.967 3.967 0 00-1.473 1.719 12.182 12.182 0 00-1.245 3.826c-.218 1.5-.195 3.141-1.13 4.33-1.274 1.617-3.262 1.368-5.066 1.687a13.639 13.639 0 00-4.447 1.7 10.986 10.986 0 00-5.152 7.564c-.051.355-.086.705-.1 1.06-.039 1.005.062 2.03-.07 3.016a5.253 5.253 0 01-.148.729 1.561 1.561 0 01-.066.207c-.058-.456-.125-.9-.2-1.352a19.9 19.9 0 01-3.063-4.026 3 3 0 01-.542-.857 22.891 22.891 0 01-2.124-9.131 20.011 20.011 0 0136.168-11.808z" opacity=".06"/><path d="M84.2 103.875c-1-2.319-3.118-3.963-5.292-5.253a28.812 28.812 0 00-14.224-4.228 42.98 42.98 0 00-14.555 2.779 25.085 25.085 0 00-9.669 7.139 9.722 9.722 0 00-1.617.261 16.3 16.3 0 00-5.772 3.016 18.371 18.371 0 00-3.842 3.753 16.126 16.126 0 00-2.592 6.091c-1.485 6.843.343 13.9 1.684 20.775s2.124 14.376-1.169 20.549c-1.243 2.338-3.009 4.326-4.334 6.6s-2.206 5.015-1.454 7.541c.9 3.071 3.913 5.019 5.487 7.782a9.353 9.353 0 01-1.82 11.192c2.475.857 5.23-.066 7.459-1.438a13.18 13.18 0 004.392-4.166c2.8-4.536 1.559-10.393 2.533-15.635 1.3-6.859 6.535-12.977 5.814-19.922-.487-4.676-3.574-8.554-6-12.564a49.233 49.233 0 01-4.066-8.423 12.727 12.727 0 01-1.025-6.539 8.8 8.8 0 01.612-1.949v.222a14.93 14.93 0 001.333 5.846c2.9 5.923 10.619 8.106 13.889 13.831a9.231 9.231 0 002.338-3.488 16.016 16.016 0 00.218-3.749 10.863 10.863 0 015.253-8.62 13.5 13.5 0 014.447-1.7c1.8-.323 3.788-.078 5.066-1.7.935-1.169.912-2.829 1.134-4.326a12.1 12.1 0 011.244-3.828 3.932 3.932 0 011.473-1.715 4.287 4.287 0 011.59-.421 31.915 31.915 0 014.606-.238c1.781.043 3.687.2 5.214-.713 2.151-1.306 2.646-4.423 1.645-6.762z" fill="#464353"/><path d="M301.97 82.364v.16c-.705 6.079-6.551 5.8-7.915 15.378-.538 3.753-6.235 4.447-9.98 5.456-1.617-.546-3.254-1.017-4.871-1.606-3.741-1.352-1.126-3.383.475-5.565 5.242-7.147 6.235-16.913 12.186-23.48a21.945 21.945 0 009.852 9.528 1.405 1.405 0 00.253.129z" opacity=".06"/><path d="M302.106 78.876a24.717 24.717 0 01-.156 2.759 24.461 24.461 0 11.156-2.759z" fill="#a1616a"/><path d="M311.947 81.612c2.8-.136 5.495.963 8.082 2.042 10.261 4.287 20.608 8.609 29.777 14.9a164.071 164.071 0 0112.892 10.206l17.182 14.6a62.189 62.189 0 019.275 9.061 61.541 61.541 0 014.259 6.625l2.549 4.345a38.994 38.994 0 012.728 5.319c1.309 3.355 1.8 7.268 4.439 9.719 1.773 1.648 4.217 2.319 6.383 3.406s4.287 3 4.252 5.421c0 1.559-.943 2.962-1.652 4.365a17.5 17.5 0 00-1.777 9.482l-28.1-21.473a9.544 9.544 0 00-3.663-2.023c-1.785-.39-3.6.284-5.327.892a103.292 103.292 0 01-42.365 5.569c-6.348-.5-12.794-1.641-18.351-4.747a56.921 56.921 0 01-8.5-6.235 104.108 104.108 0 01-9.743-8.877 6.278 6.278 0 01-1.789-2.962 9.82 9.82 0 01.105-2.525c.491-5.912-4.419-10.834-5.916-16.574a15.2 15.2 0 014.758-15.07c3.348 2.931 3.227 8.079 2.837 12.509-.526 5.966 1.142 8.924.616 14.895 2.12-.078 1.734 1.286 2.638-.635a17.785 17.785 0 001.251-6.2q.939-11.481 2.28-22.922c.444-3.815.951-7.623 1.438-11.434.3-2.319.257-4.485 1.481-6.543a10.034 10.034 0 017.961-5.136z" fill="#fff"/><path d="M315.614 88.564c1.785-.561 3.706-.047 5.5.487q4.754 1.411 9.454 2.981a25.624 25.624 0 017.323 3.379 40.061 40.061 0 018.648 11.43 27.381 27.381 0 011.559 7.74 10.157 10.157 0 01-.043 3.418 8.3 8.3 0 01-1.882 3.285 22.477 22.477 0 01-4.622 4.143c-4.587 3.086-10.132 4.372-15.534 5.507a102.227 102.227 0 01-14.594 2.253c-1.913.121-4.135 0-5.3-1.512a5.966 5.966 0 01-.779-1.535 58.124 58.124 0 01-3.651-23.862 17.58 17.58 0 01.682-4.372 21.046 21.046 0 011.5-3.293c1.477-2.794 3.032-5.686 5.577-7.556a14.944 14.944 0 019.411-2.44" fill="#a1616a"/><path d="M333.568 117.464c-1.532 1.033-2.065 3.028-2.26 4.867-.83 7.821 2.4 15.565 2.182 23.425-.171 6.235-2.5 12.221-4.8 18.039a107.38 107.38 0 00-6.754 31.348c-.791 10.643-1.949 21.726-7.662 30.728-1.3 2.038-2.81 3.932-4.08 5.982-1.333 2.143-2.389 4.443-3.566 6.672a71.785 71.785 0 01-13.25 17.8 18.284 18.284 0 01-5.2 3.87 10.468 10.468 0 01-8.129.086c-2.666-1.1-4.91-3.589-5.019-6.473-.1-2.58 1.442-4.906 2.985-6.972a114.434 114.434 0 0117.926-19 10.319 10.319 0 003.118-3.535c.705-1.68.417-3.585.507-5.405.144-2.9 1.274-5.658 1.949-8.488 2.728-11.492-2.12-24.041 1.824-35.175.877-2.475 2.178-4.84 2.486-7.447a7.1 7.1 0 00-1.376-5.23 6.9 6.9 0 01-1.692-4.426 7.642 7.642 0 01.043-.994 107.455 107.455 0 00.69-15.343 35.973 35.973 0 00-3.636-14.809c-1.224-2.358-2.806-4.563-3.562-7.108-1.216-4.119-.094-8.573 1.719-12.471a21.756 21.756 0 015.935-8.04 15.9 15.9 0 0117.58-1.118c3.952 2.362 6.656 6.333 8.85 10.382 1.574 2.955 3.234 5.461 3.192 8.835z" opacity=".06"/><path d="M334.456 117.464c-1.532 1.033-2.065 3.028-2.26 4.867-.83 7.821 2.4 15.565 2.182 23.425-.171 6.235-2.5 12.221-4.8 18.039a107.5 107.5 0 00-6.754 31.348c-.795 10.643-1.948 21.726-7.662 30.728-1.3 2.038-2.806 3.932-4.08 5.982-1.329 2.143-2.389 4.443-3.566 6.672a71.87 71.87 0 01-13.25 17.8 18.3 18.3 0 01-5.2 3.87 10.467 10.467 0 01-8.129.086c-2.662-1.1-4.906-3.589-5.015-6.473-.1-2.58 1.438-4.906 2.985-6.972a114.406 114.406 0 0117.926-19 10.278 10.278 0 003.118-3.535c.709-1.68.417-3.585.507-5.405.144-2.9 1.274-5.658 1.949-8.488 2.728-11.492-2.12-24.041 1.824-35.175.877-2.475 2.182-4.84 2.49-7.447a7.112 7.112 0 00-1.376-5.23 6.859 6.859 0 01-1.738-4.427 7.662 7.662 0 01.043-.994 108.017 108.017 0 00.686-15.343 35.971 35.971 0 00-3.636-14.809c-1.224-2.358-2.806-4.563-3.562-7.108-1.216-4.119-.094-8.573 1.719-12.47a21.8 21.8 0 015.935-8.04 15.9 15.9 0 0117.58-1.118c3.952 2.362 6.656 6.333 8.85 10.382 1.609 2.955 3.261 5.461 3.234 8.835z" fill="#a1616a"/><path d="M373.867 219.228l-.335.1m-67.922 17.289a2.883 2.883 0 01.07-.39" fill="#464353"/><path d="M389.162 209.875a8.626 8.626 0 014.517-2.311 45.362 45.362 0 018.184-1.333 15.3 15.3 0 015.128.316 6.607 6.607 0 014.076 2.946 10.239 10.239 0 01.959 4.415 40.376 40.376 0 01-.125 9.306c-.331 1.948-.951 3.835-1.352 5.768-1.3 6.337-.172 12.9-.288 19.364a10.008 10.008 0 01-.7 4.045 11.25 11.25 0 01-2.822 3.336 17.885 17.885 0 01-3.854 2.888 16.584 16.584 0 01-6.984 1.325 10.691 10.691 0 01-4.287-.487 3.992 3.992 0 01-2.638-3.188c-.156-2.467 2.627-4.08 3.422-6.418.631-1.863-.094-3.92-1.1-5.616a17.77 17.77 0 00-6.668-6.45 14.146 14.146 0 01-2.958-1.824 3.134 3.134 0 01-1.064-3.118c.433-1.329 1.98-1.948 3.371-2.081a11.573 11.573 0 004.111-.651 5.619 5.619 0 002.424-2.728 10.132 10.132 0 00.44-7.626 9.37 9.37 0 00-1.45-2.638c-.585-.748-1.785-1.38-2.2-2.2-.737-1.47.865-3.871 1.858-5.04z" fill="#fff"/><path d="M366.517 153.398c-6.438-5.69-15.413-7.237-23.83-8.963q-6.5-1.329-12.946-2.962a48.275 48.275 0 00-8.573-1.68 14.524 14.524 0 00-8.433 1.7 8.658 8.658 0 00-4.4 7.1c0 1.169.277 2.315.191 3.472-.136 1.863-1.169 3.507-1.874 5.249a13.8 13.8 0 00-.472 8.636c1.247 4.548 4.84 8.554 4.528 13.25a88.779 88.779 0 001.255 23.772c1.613 7.7 3.628 15.428 3.581 23.3s-2.432 16.157-8.312 21.4a32.122 32.122 0 0014.158 7.736c4.532 1.134 9.922 1.021 13.149-2.358a3.637 3.637 0 001.212-2.892 5.654 5.654 0 00-.838-1.89c-2.217-3.971-1.948-8.866-.966-13.3s2.662-8.745 3.086-13.273c.312-3.285-.039-6.625.589-9.867.483-2.482 1.528-4.821 2.155-7.272 1.851-7.272-.094-14.906-2.026-22.151 1.617 3.722 4.676 6.625 7.841 9.15 4.8 3.827 10.608 7.206 16.711 6.528 5.432-.608 10.058-4.384 13.25-8.815.027-5.125 1.8-9.969 1.489-15.082a38.275 38.275 0 00-1.2-6.644 32.99 32.99 0 00-2.338-7.12c-1.5-2.962-4.501-4.824-6.987-7.024z" opacity=".06"/><path d="M367.849 153.398c-6.438-5.69-15.409-7.237-23.83-8.963q-6.5-1.329-12.942-2.962a48.345 48.345 0 00-8.573-1.68 14.518 14.518 0 00-8.429 1.7 8.65 8.65 0 00-4.4 7.1c0 1.169.273 2.315.187 3.472-.133 1.863-1.189 3.507-1.875 5.249a13.8 13.8 0 00-.468 8.636c1.243 4.548 4.836 8.554 4.528 13.25a88.615 88.615 0 001.251 23.772c1.613 7.7 3.628 15.428 3.581 23.3s-2.447 16.13-8.332 21.367a32.143 32.143 0 0014.158 7.736c4.532 1.134 9.926 1.021 13.149-2.358a3.637 3.637 0 001.212-2.892 5.653 5.653 0 00-.838-1.89c-2.217-3.971-1.948-8.866-.966-13.3s2.662-8.745 3.09-13.273c.308-3.285-.043-6.625.588-9.867.479-2.482 1.528-4.821 2.151-7.272 1.851-7.272-.09-14.906-2.026-22.151 1.617 3.722 4.677 6.625 7.845 9.15 4.8 3.827 10.6 7.206 16.707 6.528 5.432-.608 10.058-4.384 13.25-8.815.023-5.125 1.8-9.969 1.485-15.082a38.28 38.28 0 00-1.2-6.644 32.78 32.78 0 00-2.338-7.12c-1.454-2.929-4.479-4.791-6.965-6.991z" fill="#a1616a"/><path d="M323.128 251.741a24.334 24.334 0 01-7.252-6.793 19.106 19.106 0 00-2.182-2.86 4.214 4.214 0 00-3.234-1.329 5.266 5.266 0 00-3.293 2.229c-2.3 2.849-3.78 6.333-6.333 8.963-2.946 3.044-7.057 4.676-11.161 5.721s-8.34 1.594-12.361 2.915a5.635 5.635 0 00-3.274 2.116c-.865 1.454-.39 3.359.522 4.8a14.083 14.083 0 007.588 5.53 68.633 68.633 0 009.353 2.077c5.557 1.087 11.251 2.829 16.781 1.6 2.206-.491 4.287-1.442 6.516-1.855 5.066-.943 10.292.962 15.378.2a24.067 24.067 0 007.015-2.459 9.672 9.672 0 003-2.038 3.672 3.672 0 00.97-3.355 13.52 13.52 0 00-.924-1.878 9.659 9.659 0 01-.662-3.164 86.728 86.728 0 00-2.135-12.19c-.347-1.4-.865-2.958-2.171-3.57a1.169 1.169 0 00-.869-.1c-.464.175-.616.737-.756 1.208a7.436 7.436 0 01-12.93 2.564" fill="#fff"/><path d="M302.106 78.876a24.746 24.746 0 01-.156 2.759 7.891 7.891 0 01-6.781-2.256c-.822-.873-1.438-1.929-2.253-2.81a3.437 3.437 0 00-5.662-.082 8.293 8.293 0 00-1.9 3.355 4.575 4.575 0 01-1.12 2.483 3.549 3.549 0 01-2.5.518 7.461 7.461 0 01-3.289-.624c-1.871-1.009-2.5-3.32-3.2-5.331-1.169-3.379-3.8-9.77-7.888-10.452-1.948-.323-4.318.705-5.846 1.816-2.3 1.672-4 2.755-6.98 2.708a24.466 24.466 0 0147.61 7.919z" opacity=".06"/><path d="M254.501 70.067a5.879 5.879 0 01-2.065-.327c-1.89-.74-2.81-2.923-2.97-4.945-.249-3.083.779-6.107 1.812-9.026a2.992 2.992 0 011.048-1.672 3.64 3.64 0 011.477-.37c2.8-.39 5.226-2.1 7.291-4.018s3.928-4.092 6.235-5.69a16.675 16.675 0 0120.491 1.773c2.1 2.058 3.9 4.848 6.8 5.331 1.676.277 3.472-.3 5.066.323a5.977 5.977 0 012.673 2.545 25.247 25.247 0 013.535 11.492 75.018 75.018 0 01-.288 12.124 3.164 3.164 0 01-.448 1.719 2.618 2.618 0 01-.916.7 7.868 7.868 0 01-9.076-1.528c-.826-.869-1.438-1.925-2.253-2.81a3.44 3.44 0 00-5.662-.078 8.292 8.292 0 00-1.9 3.355 4.522 4.522 0 01-1.122 2.475 3.577 3.577 0 01-2.506.522 7.457 7.457 0 01-3.285-.627c-1.875-1.005-2.506-3.316-3.2-5.327-1.169-3.379-3.8-9.774-7.888-10.452-1.949-.327-4.318.705-5.846 1.816-2.327 1.661-4.01 2.744-7.003 2.695z" fill="#464353"/><path d="M125.447 215.589c-.269 1.777-1.9 3.164-3.047 4.544-3.125 3.772-6.294 7.556-9.789 11.009a153.179 153.179 0 01-11.952 10.269l-5.323 4.259a6.7 6.7 0 01-2.264 1.364 4.134 4.134 0 01-2.915-.347c.078-.156.16-.3.249-.444l6.383-10.7c1.255-2.1 2.077-4.006 3.507-5.974a59.536 59.536 0 016.983-8.406c3.355-3.161 7.658-5.456 11.648-7.74.577-1.73 2.993-2.21 4.626-1.391a5.779 5.779 0 011.609 1.235 4.606 4.606 0 01.285 2.322z" opacity=".06"/><path d="M97.232 235.985l-6.383 10.7a1.513 1.513 0 00.362 2.424c2.447 1.991 5.16 4.092 5.927 7.151.549 2.182 0 4.521.491 6.711.9 3.952 4.871 6.352 8.628 7.872a48.842 48.842 0 0026.706 3.118 39.133 39.133 0 0023.22-13.148c1.777-2.151 3.3-4.505 4.984-6.726 4.676-6.138 10.612-11.177 16.5-16.165 7.58-6.422 12.046-16 18.706-23.382 1.212-1.344 2.549-2.728 4.287-3.172.974-.246 2.338.117 2.377 1.122.09 1.948 1.656 3.542 2.728 5.171 4.037 6.173 8.262 12.537 14.5 16.473a46.138 46.138 0 0011.142 4.676c9.782 3.047 19.754 5.456 29.715 7.841a16.665 16.665 0 011.8-2.841c1.033-1.267 2.393-2.233 3.429-3.507 1.9-2.3 2.564-5.331 3.172-8.246-5.951-3.644-12.057-7.4-17.926-11.192a42.3 42.3 0 01-8.32-6.418c-1.559-1.691-2.868-3.628-4.431-5.331a45.2 45.2 0 00-5.152-4.571l-14.025-11.236a575.97 575.97 0 01-12.081-9.961c-2.217-1.878-4.676-3.854-7.576-3.944-2.482-.078-4.766 1.251-6.9 2.529q-18.815 11.266-38.191 21.519c-2.615 1.38-5.242 2.751-7.736 4.337a52.143 52.143 0 00-12.751 11.45c-.659.822-1.493 1.758-2.537 1.633a2.282 2.282 0 01-.814-.284c-1.609-.861-2.6-2.525-3.507-4.1s-1.929-3.238-3.562-4.057-4.045-.339-4.626 1.4c-4.01 2.35-8.3 4.626-11.656 7.786a59.316 59.316 0 00-6.983 8.406c-1.44 1.96-2.266 3.869-3.517 5.962z" fill="#464353"/><path d="M86.776 170.718a78.543 78.543 0 0111.021 6.064" opacity=".06"/><path d="M408.227 176.575c.117 3.636.211 7.28.168 10.912a11.893 11.893 0 01-1.029 5.62 12.226 12.226 0 01-2.728 3.086l-6.418 5.818c-1.991 1.8-4.139 3.687-6.793 4.135-3.036.514-6-.963-8.92-1.949a29.277 29.277 0 00-9.119-1.531 33.687 33.687 0 01-5.323-.14 21.823 21.823 0 01-3.718-1.056l-5.796-2.012c.164-1.461 1.559-2.393 2.728-3.316 4.15-3.367 5.97-8.78 7.28-13.959a83.246 83.246 0 002.268-12.319 20.229 20.229 0 00-.144-6.173 24.554 24.554 0 00-1.715-4.731l-2.038-4.595c-1.169-2.6-3.507-3.749-5.888-5.28 3.593 1.364 7.973 1.9 10.705 4.6a7.086 7.086 0 001.847 1.5 8.741 8.741 0 002.4.522c4.057.608 7.506 3.157 10.857 5.514q6.154 4.334 12.65 8.141a29.738 29.738 0 015.6 3.835 9.032 9.032 0 013.032 5.908" fill="#464353"/><path d="M58.756 170.191c-5.109 1.009-7.767 7.015-7.467 12.209a19.875 19.875 0 005.386 12.412c2.132 2.241 4.789 3.971 6.715 6.391 2.845 3.57 3.835 8.289 6.379 12.081a32.908 32.908 0 007.015 6.98q8.909 7.108 18.4 13.456c2.572 1.719 5.386 3.457 8.48 3.39a10.573 10.573 0 007.5-3.987 32 32 0 004.353-7.552c4.45-9.7 8.932-19.512 11.06-29.972.666-3.285 1.115-6.672 2.6-9.676a46.976 46.976 0 014.443-6.453 44.516 44.516 0 007.513-16.788c.85-3.952 1.134-8.184-.261-11.964s-4.782-7.058-8.815-7.354a10.714 10.714 0 00-8.468 3.784 20.947 20.947 0 00-4.267 8.507 40.751 40.751 0 00-1.4 13.64c.249 3.706 1.005 7.447.366 11.11a29.761 29.761 0 01-2.693 7.373c-2.88 6.134-5.807 12.346-10.16 17.537-1.419 1.691-3.371 3.4-5.542 3-3-.546-3.8-4.345-5.277-7.015-1.816-3.273-5.261-5.242-7.962-7.841-3.842-3.7-6.146-8.667-8.877-13.25s-6.266-9.107-11.3-10.865-11.746.5-13.039 5.674" opacity=".06"/><path d="M62.611 173.752c-5.113 1.009-11.621 1.668-11.3 6.87a19.836 19.836 0 005.386 12.412c2.132 2.245 4.789 3.975 6.715 6.4 2.845 3.57 3.835 8.285 6.379 12.081a32.73 32.73 0 007.015 6.98q8.909 7.112 18.4 13.456c2.572 1.723 5.386 3.461 8.48 3.394a10.587 10.587 0 007.5-3.987 31.869 31.869 0 004.353-7.556c4.45-9.7 8.932-19.512 11.06-29.972.666-3.281 1.115-6.672 2.6-9.672a47.251 47.251 0 014.443-6.457 44.473 44.473 0 007.513-16.785c.85-3.956 1.134-8.184-.261-11.968s-4.782-7.054-8.815-7.354a10.726 10.726 0 00-8.468 3.784 20.913 20.913 0 00-4.267 8.511 40.74 40.74 0 00-1.4 13.64c.249 3.71 1.005 7.451.366 11.11a29.731 29.731 0 01-2.693 7.377c-2.88 6.134-5.807 12.342-10.16 17.537-1.419 1.691-3.371 3.4-5.542 3-3-.549-3.8-4.349-5.277-7.015-1.816-3.273-5.261-5.242-7.962-7.841-3.842-3.7-6.146-8.667-8.877-13.25s-6.266-9.1-11.3-10.865 1.27 9.52-.027 14.7" opacity=".06"/><path d="M58.756 169.3c-5.109 1.009-7.767 7.015-7.467 12.209a19.875 19.875 0 005.386 12.416c2.132 2.241 4.789 3.971 6.715 6.391 2.845 3.57 3.835 8.289 6.379 12.081a32.836 32.836 0 007.015 6.984q8.909 7.108 18.4 13.453c2.572 1.723 5.386 3.461 8.48 3.394a10.573 10.573 0 007.5-3.987 32 32 0 004.353-7.552c4.45-9.7 8.932-19.512 11.06-29.976.666-3.281 1.115-6.672 2.6-9.672a47.246 47.246 0 014.443-6.457 44.473 44.473 0 007.513-16.785c.85-3.956 1.134-8.184-.261-11.968s-4.782-7.054-8.815-7.35a10.7 10.7 0 00-8.468 3.784 20.947 20.947 0 00-4.267 8.507 40.751 40.751 0 00-1.4 13.64c.249 3.706 1.005 7.447.366 11.107a29.732 29.732 0 01-2.693 7.377c-2.88 6.134-5.807 12.346-10.16 17.537-1.419 1.691-3.371 3.4-5.542 3-3-.549-3.8-4.345-5.277-7.015-1.816-3.277-5.261-5.245-7.962-7.841-3.842-3.7-6.146-8.667-8.877-13.25s-6.266-9.1-11.3-10.861-11.746.5-13.039 5.674" fill="#fbbebe"/><path d="M39.228 138.17a49.233 49.233 0 01-4.065-8.429l-.132-.39a12.626 12.626 0 01-2.054-2.958 14.91 14.91 0 01-1.333-5.846v-.222a8.8 8.8 0 00-.612 1.949 12.774 12.774 0 001.025 6.541 49.369 49.369 0 004.065 8.429c2.42 4.045 5.51 7.942 5.99 12.584.721 6.945-4.517 13.059-5.81 19.922-.99 5.242.265 11.1-2.537 15.635a13.129 13.129 0 01-4.392 4.162 12.423 12.423 0 01-3.6 1.559 8.344 8.344 0 01-.748.779c2.475.857 5.23-.066 7.459-1.438a13.18 13.18 0 004.392-4.166c2.8-4.536 1.559-10.393 2.533-15.635 1.3-6.859 6.535-12.977 5.814-19.922-.481-4.671-3.567-8.564-5.995-12.554zM84.2 103.875c-1-2.319-3.118-3.963-5.292-5.253a30.634 30.634 0 00-8.889-3.585 31.773 31.773 0 015.775 2.693c2.175 1.294 4.287 2.934 5.3 5.257s.507 5.456-1.66 6.75c-1.528.916-3.433.752-5.214.713a31.376 31.376 0 00-4.606.234 4.431 4.431 0 00-1.59.421 3.956 3.956 0 00-1.473 1.734 12.112 12.112 0 00-1.247 3.831c-.218 1.5-.2 3.137-1.134 4.326-1.27 1.617-3.258 1.372-5.066 1.691a13.639 13.639 0 00-4.447 1.7 10.84 10.84 0 00-5.253 8.62 15.983 15.983 0 01-.214 3.745 6.181 6.181 0 01-1.013 1.948 13.289 13.289 0 011.8 2.428 9.231 9.231 0 002.338-3.488 16.016 16.016 0 00.218-3.749 10.863 10.863 0 015.253-8.62 13.5 13.5 0 014.447-1.7c1.8-.323 3.788-.078 5.066-1.7.935-1.169.912-2.829 1.134-4.326a12.1 12.1 0 011.243-3.831 3.932 3.932 0 011.473-1.715 4.287 4.287 0 011.59-.421 31.919 31.919 0 014.606-.238c1.781.043 3.687.2 5.214-.713 2.148-1.296 2.643-4.41 1.641-6.752zm-25.518 37.237s4.6 3.959 13.343 1.559c0-.009-5.413 2.124-13.343-1.559zm246.843-66.795a3.176 3.176 0 01-.468 1.707 2.607 2.607 0 01-.916.7 7.86 7.86 0 01-9.072-1.524c-.826-.873-1.438-1.949-2.253-2.81a4.145 4.145 0 00-3.118-1.52 4.09 4.09 0 00-2.545 1.438 8.437 8.437 0 00-1.9 3.355 4.529 4.529 0 01-1.118 2.478 3.551 3.551 0 01-2.506.518 7.38 7.38 0 01-3.285-.624c-1.874-1.005-2.506-3.32-3.2-5.327-1.169-3.383-3.8-9.774-7.884-10.456-1.949-.323-4.322.709-5.846 1.816-2.3 1.672-4 2.755-6.983 2.728a5.958 5.958 0 01-2.065-.327c-1.715-.674-2.63-2.537-2.907-4.384a12.985 12.985 0 00-.066 2.553c.164 2.019 1.083 4.2 2.973 4.945a5.959 5.959 0 002.065.327c2.981.047 4.676-1.037 6.983-2.708 1.532-1.107 3.9-2.143 5.846-1.816 4.072.663 6.722 7.054 7.868 10.432.694 2.011 1.325 4.326 3.2 5.331a7.434 7.434 0 003.285.624 3.675 3.675 0 002.506-.518 4.832 4.832 0 001.118-2.478 8.41 8.41 0 011.9-3.355 4.11 4.11 0 012.545-1.438 3.969 3.969 0 013.118 1.52c.779.885 1.426 1.948 2.253 2.81a7.86 7.86 0 009.072 1.524 2.654 2.654 0 00.916-.7 3.18 3.18 0 00.468-1.711 92.921 92.921 0 00.39-9.875c-.031 2.256-.199 4.512-.374 6.765z" opacity=".06"/><path d="M35 240.565s.62-.69-.546-.963v-1.134h.7a5.982 5.982 0 00-4.743-5.846v-1.376h.183v-1.788h-4.507v1.789h.129v1.391a5.986 5.986 0 00-4.676 5.846h.62v1.087s-1.477.7 0 1.948 1.247 2.155 1.247 2.155-.62 2.338-1.863 2.642v21.679a4.817 4.817 0 004.817 4.821h3.806a4.821 4.821 0 004.821-4.821v-21.678s-2.178-1.633-1.789-2.642a24.377 24.377 0 011.801-3.11z" fill="#10182f"/></g></svg>