<svg xmlns="http://www.w3.org/2000/svg" width="493.109" height="493" viewBox="0 0 493.109 493"><path d="M246.535,151.926a126.4,126.4,0,1,0,126.4,126.4A126.2,126.2,0,0,0,246.535,151.926Zm0,208.575a82.176,82.176,0,1,1,82.176-82.176A82.325,82.325,0,0,1,246.535,360.5ZM407.587,146.756A29.482,29.482,0,1,1,378.1,117.274,29.414,29.414,0,0,1,407.587,146.756ZM491.3,176.678c-1.87-39.493-10.891-74.475-39.823-103.3-28.822-28.822-63.8-37.843-103.3-39.823-40.7-2.31-162.7-2.31-203.4,0C105.4,35.428,70.413,44.448,41.48,73.27s-37.843,63.8-39.823,103.3c-2.31,40.7-2.31,162.7,0,203.4,1.87,39.493,10.891,74.475,39.823,103.3s63.8,37.843,103.3,39.823c40.7,2.31,162.7,2.31,203.4,0,39.493-1.87,74.475-10.891,103.3-39.823,28.822-28.822,37.843-63.8,39.823-103.3,2.31-40.7,2.31-162.592,0-203.295ZM438.719,423.645a83.2,83.2,0,0,1-46.863,46.863c-32.452,12.871-109.458,9.9-145.32,9.9s-112.978,2.86-145.32-9.9a83.2,83.2,0,0,1-46.863-46.863c-12.871-32.452-9.9-109.458-9.9-145.32S41.59,165.347,54.351,133a83.2,83.2,0,0,1,46.863-46.863c32.452-12.871,109.458-9.9,145.32-9.9s112.978-2.86,145.32,9.9A83.2,83.2,0,0,1,438.719,133c12.871,32.452,9.9,109.458,9.9,145.32S451.59,391.3,438.719,423.645Z" transform="translate(0.074 -31.825)" fill="#fff"/></svg>